<!--?xml version="1.0" standalone="no"?-->              <svg id="sw-js-blob-svg" viewBox="0 0 100 100" xmlns="http://www.w3.org/2000/svg">                    <defs>                         <linearGradient id="sw-gradient" x1="0" x2="1" y1="1" y2="0">                            <stop id="stop1" stop-color="rgba(248, 117, 55, 1)" offset="0%"></stop>                            <stop id="stop2" stop-color="rgba(251, 168, 31, 1)" offset="100%"></stop>                        </linearGradient>                    </defs>                <path fill="url(#sw-gradient)" d="M20.6,-24.3C28.5,-17.9,38,-13.1,39,-6.9C40,-0.8,32.5,6.8,27.1,15.2C21.8,23.6,18.5,32.8,12.3,36.1C6.1,39.4,-3.2,36.7,-11.3,33C-19.5,29.2,-26.6,24.3,-30.1,17.6C-33.6,11,-33.5,2.5,-33,-6.8C-32.6,-16.1,-31.6,-26.4,-26,-33.2C-20.5,-40,-10.2,-43.4,-2,-41.1C6.3,-38.7,12.7,-30.7,20.6,-24.3Z" width="100%" height="100%" transform="translate(50 50)" stroke-width="0" style="transition: all 0.3s ease 0s;"></path></svg>